HIERARCHY
ROOT mixamorig:Hips
{
	OFFSET 0.000000 104.274902 0.000000
	CHANNELS 6 Xposition Yposition Zposition Xrotation Yrotation Zrotation
	JOINT mixamorig:Spine
	{
		OFFSET 0.000000 10.181549 0.131524
		CHANNELS 6 Xposition Yposition Zposition Xrotation Yrotation Zrotation
		JOINT mixamorig:Spine1
		{
			OFFSET 0.000000 9.893990 -1.470706
			CHANNELS 3 Xrotation Yrotation Zrotation
			JOINT mixamorig:Spine2
			{
				OFFSET 0.000000 9.220787 -1.370637
				CHANNELS 3 Xrotation Yrotation Zrotation
				JOINT mixamorig:Neck
				{
					OFFSET 0.000000 16.740372 -2.049022
					CHANNELS 6 Xposition Yposition Zposition Xrotation Yrotation Zrotation
					JOINT mixamorig:Head
					{
						OFFSET 0.000000 9.617859 1.684976
						CHANNELS 6 Xposition Yposition Zposition Xrotation Yrotation Zrotation
						JOINT mixamorig:HeadTop_End
						{
							OFFSET 0.000000 22.037384 7.501072
							CHANNELS 6 Xposition Yposition Zposition Xrotation Yrotation Zrotation
							End Site
							{
								OFFSET 0.000000 23.106567 -2.828246
							}
						}
					}
				}
				JOINT mixamorig:RightShoulder
				{
					OFFSET -4.570000 11.014877 -2.160840
					CHANNELS 6 Xposition Yposition Zposition Xrotation Yrotation Zrotation
					JOINT mixamorig:RightArm
					{
						OFFSET -10.592867 -0.524796 -2.232105
						CHANNELS 3 Xrotation Yrotation Zrotation
						JOINT mixamorig:RightForeArm
						{
							OFFSET -27.841497 0.000000 -0.000002
							CHANNELS 3 Xrotation Yrotation Zrotation
							JOINT mixamorig:RightHand
							{
								OFFSET -28.328812 0.000000 -0.000001
								CHANNELS 3 Xrotation Yrotation Zrotation
								JOINT mixamorig:RightHandThumb1
								{
									OFFSET -2.464798 -1.573990 2.681911
									CHANNELS 6 Xposition Yposition Zposition Xrotation Yrotation Zrotation
									JOINT mixamorig:RightHandThumb2
									{
										OFFSET -3.244781 -1.873383 1.873376
										CHANNELS 3 Xrotation Yrotation Zrotation
										JOINT mixamorig:RightHandThumb3
										{
											OFFSET -2.646263 -1.527817 1.527818
											CHANNELS 6 Xposition Yposition Zposition Xrotation Yrotation Zrotation
											JOINT mixamorig:RightHandThumb4
											{
												OFFSET -1.994591 -1.151581 1.151575
												CHANNELS 6 Xposition Yposition Zposition Xrotation Yrotation Zrotation
												End Site
												{
													OFFSET -1.860176 -1.142715 1.365483
												}
											}
										}
									}
								}
								JOINT mixamorig:RightHandIndex1
								{
									OFFSET -9.108299 -0.517883 2.259803
									CHANNELS 6 Xposition Yposition Zposition Xrotation Yrotation Zrotation
									JOINT mixamorig:RightHandIndex2
									{
										OFFSET -3.699997 0.000000 0.000000
										CHANNELS 3 Xrotation Yrotation Zrotation
										JOINT mixamorig:RightHandIndex3
										{
											OFFSET -2.850006 0.000000 0.000000
											CHANNELS 3 Xrotation Yrotation Zrotation
											JOINT mixamorig:RightHandIndex4
											{
												OFFSET -2.772194 0.000000 0.000000
												CHANNELS 3 Xrotation Yrotation Zrotation
												End Site
												{
													OFFSET -2.772202 0.000000 -0.000484
												}
											}
										}
									}
								}
								JOINT mixamorig:RightHandMiddle1
								{
									OFFSET -9.532501 0.000000 -0.000000
									CHANNELS 6 Xposition Yposition Zposition Xrotation Yrotation Zrotation
									JOINT mixamorig:RightHandMiddle2
									{
										OFFSET -3.699997 0.000000 0.000000
										CHANNELS 3 Xrotation Yrotation Zrotation
										JOINT mixamorig:RightHandMiddle3
										{
											OFFSET -2.949997 0.000000 0.000000
											CHANNELS 3 Xrotation Yrotation Zrotation
											JOINT mixamorig:RightHandMiddle4
											{
												OFFSET -2.946594 0.000000 0.000000
												CHANNELS 3 Xrotation Yrotation Zrotation
												End Site
												{
													OFFSET -2.946602 0.000000 -0.000982
												}
											}
										}
									}
								}
								JOINT mixamorig:RightHandRing1
								{
									OFFSET -9.103600 -0.043106 -1.865100
									CHANNELS 6 Xposition Yposition Zposition Xrotation Yrotation Zrotation
									JOINT mixamorig:RightHandRing2
									{
										OFFSET -3.379303 0.000000 0.000000
										CHANNELS 3 Xrotation Yrotation Zrotation
										JOINT mixamorig:RightHandRing3
										{
											OFFSET -2.889694 0.000000 0.000000
											CHANNELS 3 Xrotation Yrotation Zrotation
											JOINT mixamorig:RightHandRing4
											{
												OFFSET -2.638802 0.000000 0.000000
												CHANNELS 3 Xrotation Yrotation Zrotation
												End Site
												{
													OFFSET -2.638802 0.000000 0.004218
												}
											}
										}
									}
								}
								JOINT mixamorig:RightHandPinky1
								{
									OFFSET -8.076698 -0.486725 -3.806299
									CHANNELS 6 Xposition Yposition Zposition Xrotation Yrotation Zrotation
									JOINT mixamorig:RightHandPinky2
									{
										OFFSET -3.600006 0.000000 0.000000
										CHANNELS 3 Xrotation Yrotation Zrotation
										JOINT mixamorig:RightHandPinky3
										{
											OFFSET -2.099998 0.000000 0.000000
											CHANNELS 3 Xrotation Yrotation Zrotation
											JOINT mixamorig:RightHandPinky4
											{
												OFFSET -2.115791 0.000000 0.000000
												CHANNELS 3 Xrotation Yrotation Zrotation
												End Site
												{
													OFFSET -2.115799 0.000000 0.000174
												}
											}
										}
									}
								}
							}
						}
					}
				}
				JOINT mixamorig:LeftShoulder
				{
					OFFSET 4.570400 11.014679 -2.160816
					CHANNELS 6 Xposition Yposition Zposition Xrotation Yrotation Zrotation
					JOINT mixamorig:LeftArm
					{
						OFFSET 10.592373 -0.524597 -2.232116
						CHANNELS 3 Xrotation Yrotation Zrotation
						JOINT mixamorig:LeftForeArm
						{
							OFFSET 27.841488 0.000000 0.000001
							CHANNELS 3 Xrotation Yrotation Zrotation
							JOINT mixamorig:LeftHand
							{
								OFFSET 28.328808 0.000000 -0.000000
								CHANNELS 3 Xrotation Yrotation Zrotation
								JOINT mixamorig:LeftHandThumb1
								{
									OFFSET 2.466103 -1.576202 2.681698
									CHANNELS 6 Xposition Yposition Zposition Xrotation Yrotation Zrotation
									JOINT mixamorig:LeftHandThumb2
									{
										OFFSET 3.243317 -1.872528 1.872530
										CHANNELS 3 Xrotation Yrotation Zrotation
										JOINT mixamorig:LeftHandThumb3
										{
											OFFSET 2.647881 -1.528763 1.528754
											CHANNELS 6 Xposition Yposition Zposition Xrotation Yrotation Zrotation
											JOINT mixamorig:LeftHandThumb4
											{
												OFFSET 1.998924 -1.154083 1.154080
												CHANNELS 6 Xposition Yposition Zposition Xrotation Yrotation Zrotation
												End Site
												{
													OFFSET 1.884041 -1.149155 1.337651
												}
											}
										}
									}
								}
								JOINT mixamorig:LeftHandIndex1
								{
									OFFSET 9.109299 -0.518005 2.259900
									CHANNELS 6 Xposition Yposition Zposition Xrotation Yrotation Zrotation
									JOINT mixamorig:LeftHandIndex2
									{
										OFFSET 3.699997 0.000000 0.000000
										CHANNELS 3 Xrotation Yrotation Zrotation
										JOINT mixamorig:LeftHandIndex3
										{
											OFFSET 2.850006 0.000000 0.000000
											CHANNELS 3 Xrotation Yrotation Zrotation
											JOINT mixamorig:LeftHandIndex4
											{
												OFFSET 2.774895 0.000000 0.000000
												CHANNELS 3 Xrotation Yrotation Zrotation
												End Site
												{
													OFFSET 2.774902 0.000000 -0.000072
												}
											}
										}
									}
								}
								JOINT mixamorig:LeftHandMiddle1
								{
									OFFSET 9.533401 0.000000 0.000000
									CHANNELS 6 Xposition Yposition Zposition Xrotation Yrotation Zrotation
									JOINT mixamorig:LeftHandMiddle2
									{
										OFFSET 3.699997 0.000000 0.000000
										CHANNELS 3 Xrotation Yrotation Zrotation
										JOINT mixamorig:LeftHandMiddle3
										{
											OFFSET 2.949997 0.000000 0.000000
											CHANNELS 3 Xrotation Yrotation Zrotation
											JOINT mixamorig:LeftHandMiddle4
											{
												OFFSET 2.952896 0.000000 0.000000
												CHANNELS 3 Xrotation Yrotation Zrotation
												End Site
												{
													OFFSET 2.952904 0.000000 0.000165
												}
											}
										}
									}
								}
								JOINT mixamorig:LeftHandRing1
								{
									OFFSET 9.104500 -0.042999 -1.865101
									CHANNELS 6 Xposition Yposition Zposition Xrotation Yrotation Zrotation
									JOINT mixamorig:LeftHandRing2
									{
										OFFSET 3.149994 0.000000 0.000000
										CHANNELS 3 Xrotation Yrotation Zrotation
										JOINT mixamorig:LeftHandRing3
										{
											OFFSET 2.950005 0.000000 0.000000
											CHANNELS 3 Xrotation Yrotation Zrotation
											JOINT mixamorig:LeftHandRing4
											{
												OFFSET 2.644302 0.000000 0.000000
												CHANNELS 3 Xrotation Yrotation Zrotation
												End Site
												{
													OFFSET 2.644302 0.000000 0.000083
												}
											}
										}
									}
								}
								JOINT mixamorig:LeftHandPinky1
								{
									OFFSET 8.077805 -0.486893 -3.806302
									CHANNELS 6 Xposition Yposition Zposition Xrotation Yrotation Zrotation
									JOINT mixamorig:LeftHandPinky2
									{
										OFFSET 3.600006 0.000000 0.000000
										CHANNELS 3 Xrotation Yrotation Zrotation
										JOINT mixamorig:LeftHandPinky3
										{
											OFFSET 2.099998 0.000000 0.000000
											CHANNELS 3 Xrotation Yrotation Zrotation
											JOINT mixamorig:LeftHandPinky4
											{
												OFFSET 2.125496 0.000000 0.000000
												CHANNELS 3 Xrotation Yrotation Zrotation
												End Site
												{
													OFFSET 2.125504 0.000000 -0.001254
												}
											}
										}
									}
								}
							}
						}
					}
				}
			}
		}
	}
	JOINT mixamorig:RightUpLeg
	{
		OFFSET -8.207800 -6.751701 -1.599544
		CHANNELS 6 Xposition Yposition Zposition Xrotation Yrotation Zrotation
		JOINT mixamorig:RightLeg
		{
			OFFSET 0.000004 -44.370152 0.345934
			CHANNELS 3 Xrotation Yrotation Zrotation
			JOINT mixamorig:RightFoot
			{
				OFFSET 0.000004 -44.423664 -3.043535
				CHANNELS 3 Xrotation Yrotation Zrotation
				JOINT mixamorig:RightToeBase
				{
					OFFSET 0.000001 -8.728691 10.710592
					CHANNELS 3 Xrotation Yrotation Zrotation
					JOINT mixamorig:RightToe_End
					{
						OFFSET 0.000000 -0.000665 9.278101
						CHANNELS 3 Xrotation Yrotation Zrotation
						End Site
						{
							OFFSET 0.000000 -0.000665 9.278103
						}
					}
				}
			}
		}
	}
	JOINT mixamorig:LeftUpLeg
	{
		OFFSET 8.207800 -6.751701 -1.599544
		CHANNELS 6 Xposition Yposition Zposition Xrotation Yrotation Zrotation
		JOINT mixamorig:LeftLeg
		{
			OFFSET 0.000004 -44.370037 0.346940
			CHANNELS 3 Xrotation Yrotation Zrotation
			JOINT mixamorig:LeftFoot
			{
				OFFSET 0.000004 -44.423611 -3.044388
				CHANNELS 3 Xrotation Yrotation Zrotation
				JOINT mixamorig:LeftToeBase
				{
					OFFSET 0.000001 -8.728690 10.710592
					CHANNELS 3 Xrotation Yrotation Zrotation
					JOINT mixamorig:LeftToe_End
					{
						OFFSET 0.000000 -0.000680 9.278101
						CHANNELS 3 Xrotation Yrotation Zrotation
						End Site
						{
							OFFSET 0.000000 -0.000680 9.278101
						}
					}
				}
			}
		}
	}
}
MOTION
Frames: 4
Frame Time: 0.033333
-1.116868 89.041077 1.469985 -6.480894 -46.222943 -1.349299 -0.000000 10.181552 0.131525 7.510200 7.360810 0.296162 0.568842 0.986080 -0.147614 0.571692 0.982841 -0.153488 -0.000001 16.740368 -2.049022 6.213365 2.371701 -3.823405 -0.000001 9.617868 1.684968 18.773304 6.630103 -11.263353 0.000002 22.037354 7.501078 0.000000 -0.000000 0.000000 -4.570001 11.014867 -2.160839 3.025567 11.967638 -5.320759 -41.198226 37.009301 79.340570 0.000189 108.404459 -0.000130 -8.660579 15.997119 -17.125347 -2.464788 -1.573998 2.681910 6.801482 -10.900333 7.985598 19.141648 -27.885337 3.998758 -2.646261 -1.527786 1.527811 29.984691 -44.512329 -15.655555 -1.994594 -1.151585 1.151571 -0.000001 -0.000002 0.000001 -9.108303 -0.517880 2.259798 5.720044 -6.839339 79.794341 8.318720 -6.812376 101.403044 3.440656 -6.001656 59.619676 0.000001 0.000001 -0.000002 -9.532500 -0.000005 -0.000008 5.760455 -6.846638 80.562033 8.164412 -6.841465 100.105062 2.110246 -5.185142 46.876671 -0.000001 -0.000001 0.000002 -9.103606 -0.043115 -1.865102 5.204733 -6.727307 75.997630 7.669976 -6.910796 95.976992 3.977502 -5.240008 60.393544 0.000002 0.000000 0.000000 -8.076678 -0.486727 -3.806298 4.789310 -6.605881 71.856151 6.550502 -6.936864 86.710454 3.870582 -6.232445 63.652650 0.000001 0.000000 0.000002 4.570401 11.014686 -2.160814 1.350557 4.499058 -8.659614 -27.870018 -17.500328 -61.181932 -0.000020 -113.390552 -0.000016 22.039274 3.770795 5.072170 2.466095 -1.576200 2.681698 7.848642 10.285269 -7.819794 19.113518 25.088883 -4.277953 2.647886 -1.528743 1.528751 35.938806 53.409733 -17.151551 1.998921 -1.154077 1.154076 -0.000002 0.000000 -0.000002 9.109304 -0.518004 2.259902 4.948219 6.605540 -73.648666 8.165033 6.761112 -100.777809 2.283707 5.125595 -48.009533 0.000000 -0.000000 -0.000000 9.533403 0.000005 -0.000003 4.594195 6.492228 -71.068480 8.420098 6.707906 -102.952746 1.771060 4.614653 -41.976625 0.000000 -0.000001 -0.000000 9.104501 -0.042993 -1.865101 5.064701 6.638453 -74.926485 7.796347 6.820553 -97.660715 4.190768 6.335906 -66.934918 0.000002 -0.000001 -0.000001 8.077808 -0.486887 -3.806301 5.967026 6.846716 -77.445616 5.595009 2.674152 -79.236130 4.083246 6.289327 -65.957067 0.000002 0.000001 0.000001 -8.207805 -6.751713 -1.599544 -12.247901 -14.783384 -32.780615 40.834631 -2.040050 -7.738685 -18.688455 -4.988538 23.062854 -5.536130 0.000008 -0.000002 0.000000 -0.000001 -0.000000 8.207798 -6.751707 -1.599546 -29.878584 9.450444 15.873228 57.440791 -6.113748 4.326575 -25.451848 -8.323076 -12.780896 -1.594036 -0.000021 0.000005 0.000000 -0.000000 -0.000000 
-1.334789 89.680328 1.147935 -6.279831 -46.033047 -1.348297 -0.000000 10.181544 0.131523 7.471259 7.469427 0.173532 0.725545 1.002332 -0.244878 0.729745 0.998022 -0.248572 0.000001 16.740366 -2.049023 6.374317 2.337597 -3.896776 -0.000003 9.617859 1.684972 18.711221 6.437281 -10.926544 0.000001 22.037369 7.501075 -0.000000 0.000000 0.000000 -4.570000 11.014877 -2.160843 3.057850 12.172925 -5.328077 -40.432456 36.730172 79.159686 0.000211 107.723701 -0.000153 -9.099450 15.853976 -17.317204 -2.464800 -1.573987 2.681915 6.801481 -10.900332 7.985599 19.141656 -27.885340 3.998756 -2.646265 -1.527797 1.527826 29.984684 -44.512326 -15.655557 -1.994594 -1.151582 1.151572 0.000000 -0.000003 0.000001 -9.108303 -0.517873 2.259807 5.720044 -6.839337 79.794341 8.318725 -6.812373 101.403044 3.440653 -6.001655 59.619676 -0.000000 0.000001 0.000001 -9.532532 0.000005 0.000001 5.760454 -6.846636 80.562033 8.164416 -6.841463 100.105062 2.110249 -5.185142 46.876664 0.000004 0.000002 -0.000003 -9.103592 -0.043115 -1.865096 5.204731 -6.727309 75.997630 7.669971 -6.910797 95.976992 3.977505 -5.240007 60.393537 -0.000001 -0.000001 -0.000001 -8.076694 -0.486723 -3.806299 4.789309 -6.605881 71.856145 6.550499 -6.936864 86.710454 3.870581 -6.232446 63.652643 0.000003 0.000002 0.000002 4.570403 11.014683 -2.160816 1.353385 4.766580 -8.720723 -27.320422 -16.998404 -61.128328 0.000031 -112.928346 0.000047 22.830088 5.066421 3.140438 2.466102 -1.576184 2.681705 7.848642 10.285272 -7.819785 19.113516 25.088880 -4.277950 2.647890 -1.528750 1.528753 35.938803 53.409726 -17.151548 1.998917 -1.154075 1.154076 0.000001 0.000000 0.000003 9.109297 -0.517996 2.259902 4.948218 6.605540 -73.648666 8.165034 6.761115 -100.777816 2.283706 5.125597 -48.009536 -0.000000 0.000001 0.000000 9.533408 0.000017 0.000000 4.594192 6.492222 -71.068473 8.420096 6.707907 -102.952753 1.771061 4.614652 -41.976621 -0.000001 -0.000000 0.000001 9.104487 -0.043004 -1.865098 5.064702 6.638451 -74.926485 7.796349 6.820550 -97.660715 4.190770 6.335910 -66.934918 0.000001 -0.000002 -0.000002 8.077797 -0.486868 -3.806296 5.967024 6.846714 -77.445616 5.595005 2.674155 -79.236137 4.083245 6.289326 -65.957067 0.000001 -0.000002 0.000000 -8.207801 -6.751703 -1.599544 -12.723031 -15.347929 -33.080696 40.720618 -0.282783 -7.188803 -15.573362 -4.504276 23.888762 -6.459063 -0.000013 0.000002 -0.000000 0.000001 -0.000001 8.207795 -6.751708 -1.599542 -29.544198 10.270070 16.665407 55.668439 -7.044852 4.127039 -24.424692 -8.907916 -12.604786 -1.994250 0.000010 0.000003 0.000000 -0.000002 0.000000 
-1.735118 90.907021 0.388137 -5.745672 -45.740691 -1.413307 0.000000 10.181553 0.131523 7.226700 7.603764 0.081671 0.812944 1.021023 -0.303706 0.817920 1.016214 -0.305796 0.000000 16.740351 -2.049021 6.711284 2.289210 -3.956180 -0.000001 9.617837 1.684970 18.596397 6.279246 -10.433921 -0.000000 22.037354 7.501087 0.000001 -0.000001 0.000001 -4.569999 11.014884 -2.160840 3.317277 12.804048 -5.174061 -41.064890 35.789932 78.507144 0.000254 107.681955 -0.000195 -10.062104 15.125258 -17.568800 -2.464796 -1.573987 2.681908 6.801485 -10.900331 7.985598 19.141651 -27.885332 3.998755 -2.646260 -1.527820 1.527807 29.984691 -44.512329 -15.655555 -1.994591 -1.151580 1.151565 -0.000000 -0.000003 0.000003 -9.108288 -0.517894 2.259793 5.720042 -6.839338 79.794341 8.318718 -6.812373 101.403044 3.440655 -6.001659 59.619676 0.000001 0.000001 -0.000001 -9.532500 -0.000003 -0.000009 5.760454 -6.846639 80.562033 8.164411 -6.841463 100.105062 2.110246 -5.185144 46.876667 -0.000000 -0.000002 0.000002 -9.103590 -0.043111 -1.865109 5.204731 -6.727308 75.997630 7.669974 -6.910795 95.976992 3.977501 -5.240003 60.393544 -0.000001 -0.000000 0.000001 -8.076694 -0.486723 -3.806299 4.789309 -6.605882 71.856145 6.550504 -6.936863 86.710454 3.870581 -6.232441 63.652643 -0.000000 -0.000001 0.000002 4.570403 11.014683 -2.160815 1.341896 4.809329 -8.696683 -27.776928 -16.542493 -60.383503 -0.000041 -113.626494 -0.000030 23.271081 5.864198 2.004971 2.466089 -1.576212 2.681696 7.848640 10.285275 -7.819793 19.113518 25.088887 -4.277945 2.647882 -1.528720 1.528749 35.938813 53.409730 -17.151553 1.998922 -1.154094 1.154084 -0.000001 0.000003 -0.000002 9.109293 -0.518012 2.259899 4.948218 6.605540 -73.648666 8.165036 6.761112 -100.777816 2.283707 5.125598 -48.009540 0.000000 0.000003 -0.000000 9.533407 0.000001 -0.000004 4.594191 6.492230 -71.068473 8.420098 6.707907 -102.952746 1.771058 4.614656 -41.976621 -0.000001 -0.000001 0.000001 9.104499 -0.043004 -1.865110 5.064700 6.638450 -74.926485 7.796348 6.820550 -97.660709 4.190767 6.335908 -66.934918 -0.000001 -0.000002 -0.000000 8.077806 -0.486891 -3.806307 5.967024 6.846717 -77.445616 5.595010 2.674155 -79.236130 4.083242 6.289325 -65.957067 -0.000001 -0.000000 0.000000 -8.207805 -6.751717 -1.599544 -12.830957 -15.894405 -32.605510 39.760710 1.593840 -6.221778 -11.181839 -3.629642 24.284751 -7.976670 -0.203563 4.830726 -0.000000 0.000000 0.000000 8.207798 -6.751701 -1.599545 -28.802126 10.990187 17.375093 52.147354 -7.718976 4.330680 -22.361640 -9.242236 -12.994389 -2.686234 0.000028 0.000001 0.000000 -0.000001 0.000000 
-2.535080 92.413078 -1.327046 -5.052777 -44.234163 -1.537884 -0.000000 10.181555 0.131524 6.904430 7.370963 -0.184609 0.915732 0.988276 -0.183810 0.918525 0.985666 -0.184064 -0.000001 16.740360 -2.049020 7.180469 2.233266 -4.159527 -0.000003 9.617847 1.684970 17.933333 5.965415 -9.299858 -0.000004 22.037384 7.501062 -0.000001 -0.000002 0.000001 -4.570001 11.014845 -2.160841 3.572476 13.678763 -5.139153 -43.048480 34.236125 77.498072 0.000231 108.732172 -0.000189 -10.895011 13.930201 -17.769406 -2.464790 -1.573999 2.681911 6.801483 -10.900330 7.985593 19.141650 -27.885340 3.998756 -2.646265 -1.527801 1.527818 29.984691 -44.512329 -15.655557 -1.994586 -1.151585 1.151576 0.000002 -0.000005 -0.000002 -9.108303 -0.517894 2.259807 5.720043 -6.839335 79.794341 8.318721 -6.812372 101.403044 3.440656 -6.001656 59.619676 0.000002 0.000002 0.000001 -9.532517 -0.000001 0.000005 5.760453 -6.846639 80.562033 8.164418 -6.841463 100.105062 2.110247 -5.185145 46.876664 0.000001 0.000004 0.000001 -9.103578 -0.043100 -1.865103 5.204731 -6.727306 75.997630 7.669976 -6.910795 95.976992 3.977503 -5.240007 60.393544 -0.000001 0.000001 -0.000001 -8.076696 -0.486723 -3.806294 4.789309 -6.605877 71.856151 6.550499 -6.936863 86.710454 3.870579 -6.232444 63.652650 0.000001 -0.000001 0.000001 4.570400 11.014677 -2.160815 1.376711 4.028914 -8.621171 -30.634099 -16.651600 -59.361413 -0.000025 -114.562080 -0.000018 23.235049 6.362897 2.785657 2.466094 -1.576197 2.681702 7.848637 10.285275 -7.819790 19.113509 25.088880 -4.277950 2.647886 -1.528741 1.528753 35.938806 53.409730 -17.151549 1.998909 -1.154109 1.154075 -0.000001 0.000003 0.000003 9.109295 -0.517989 2.259903 4.948218 6.605542 -73.648666 8.165033 6.761113 -100.777809 2.283708 5.125596 -48.009533 -0.000001 -0.000001 -0.000000 9.533398 0.000013 0.000003 4.594193 6.492229 -71.068473 8.420097 6.707905 -102.952746 1.771062 4.614653 -41.976618 -0.000000 -0.000001 0.000001 9.104504 -0.042992 -1.865097 5.064704 6.638456 -74.926479 7.796348 6.820552 -97.660715 4.190768 6.335910 -66.934918 -0.000000 0.000000 -0.000003 8.077826 -0.486868 -3.806298 5.967025 6.846718 -77.445616 5.595008 2.674152 -79.236130 4.083244 6.289327 -65.957067 -0.000000 -0.000001 0.000001 -8.207804 -6.751698 -1.599544 -11.544137 -16.219063 -30.265794 38.488283 1.602973 -4.870479 -10.471143 -3.348335 23.426268 -7.641418 -0.163229 3.956152 0.000000 -0.000001 0.000000 8.207799 -6.751692 -1.599540 -28.649690 11.042481 17.965284 47.689648 -8.042480 5.190274 -16.662151 -10.698128 -14.212925 -5.336707 0.000011 0.000001 -0.000000 0.000002 0.000000 
